<?xml version="1.0" encoding="UTF-8" standalone="no"?>
<!DOCTYPE svg PUBLIC "-//W3C//DTD SVG 1.1//EN" "http://www.w3.org/Graphics/SVG/1.1/DTD/svg11.dtd">
<svg width="100%" height="100%" viewBox="0 0 24 24" version="1.1" xmlns="http://www.w3.org/2000/svg" xmlns:xlink="http://www.w3.org/1999/xlink" xml:space="preserve" xmlns:serif="http://www.serif.com/" style="fill-rule:evenodd;clip-rule:evenodd;stroke-linecap:round;stroke-linejoin:round;">
    <path d="M22,6C22,4.896 21.104,4 20,4L4,4C2.896,4 2,4.896 2,6L2,8C2,9.104 2.896,10 4,10L20,10C21.104,10 22,9.104 22,8L22,6Z" style="fill:none;stroke:white;stroke-width:2px;"/>
    <path d="M22,16C22,14.896 21.104,14 20,14L4,14C2.896,14 2,14.896 2,16L2,18C2,19.104 2.896,20 4,20L20,20C21.104,20 22,19.104 22,18L22,16Z" style="fill:none;stroke:white;stroke-width:2px;"/>
</svg>
