<?xml version="1.0" encoding="UTF-8" standalone="no"?>
<!DOCTYPE svg PUBLIC "-//W3C//DTD SVG 1.1//EN" "http://www.w3.org/Graphics/SVG/1.1/DTD/svg11.dtd">
<svg width="100%" height="100%" viewBox="0 0 1140 1001" version="1.1" xmlns="http://www.w3.org/2000/svg" xmlns:xlink="http://www.w3.org/1999/xlink" xml:space="preserve" xmlns:serif="http://www.serif.com/" style="fill-rule:evenodd;clip-rule:evenodd;stroke-linejoin:round;stroke-miterlimit:2;">
    <g id="Merged" transform="matrix(1,0,0,1,-741.071,-849.067)">
        <path d="M1589.47,1217.83C1668.13,1199.88 1799.12,1175.55 1881.05,1060.08C1831.15,1274.6 1613.99,1270.23 1514.79,1268.87C1602.35,1290.09 1695.33,1313.07 1804.69,1271.54C1695.01,1388.79 1569.29,1347.74 1474.86,1314.65C1520.42,1353.14 1575.54,1384.78 1675.91,1384.78C1478.83,1470.64 1329.65,1330.52 1329.65,1215.63C1488.23,1196.25 1733.39,1077.39 1866.17,849.107C1873.42,1049.82 1695.81,1177.34 1589.47,1217.83ZM1346.63,995.003C1329.92,995.003 1299.44,1002.46 1271.29,1010.54C1237.93,1020.12 1207.86,1030.59 1207.86,1030.59C1207.86,1030.59 1235.04,977.936 1239.62,977.228C1240.07,977.327 1240.2,977.33 1239.88,977.212C1239.79,977.197 1239.7,977.202 1239.62,977.228C1234.76,976.15 1188.66,962.518 1186.5,945.186C1249.83,970.358 1396.07,897.936 1403.57,966.535C1444.21,988.393 1452.96,1000.94 1421.36,1041.27C1419.94,1014.43 1383.46,995.003 1346.63,995.003ZM946.187,1384.78C1046.57,1384.78 1101.68,1353.14 1147.25,1314.65C1052.81,1347.74 927.091,1388.79 817.406,1271.54C926.773,1313.07 1019.75,1290.09 1107.31,1268.87C1008.11,1270.23 790.951,1274.61 741.063,1060.08C822.978,1175.55 953.978,1199.88 1032.64,1217.83C926.301,1177.34 748.693,1049.82 755.941,849.107C888.719,1077.39 1133.88,1196.25 1292.46,1215.63C1292.45,1330.52 1143.27,1470.64 946.187,1384.78ZM1207.86,1076.85C1207.31,1048.1 1364.52,1018.83 1367.99,1034.15C1229.36,1062.25 1357.31,1172.93 1357.31,1172.93C1357.31,1172.93 1210.48,1214.54 1207.86,1076.85ZM1161.63,1580.52C1187.59,1551.87 1178.17,1473.35 1147.4,1450.46C1189.61,1450.46 1311.05,1380.16 1311.05,1286.81C1311.05,1379.05 1421.15,1450.46 1464.03,1450.46C1483.36,1450.46 1411.11,1514.97 1453.39,1557.25C1466.86,1568.05 1456.98,1624.43 1451.36,1669.17C1432.59,1618.78 1420.42,1642.41 1417.45,1658.17C1414.48,1673.94 1392.08,1713.83 1378.09,1732.58C1364.11,1751.34 1369.62,1760.01 1355.13,1797.28C1352.45,1760.81 1342.43,1726.37 1335.47,1732.58C1328.51,1738.79 1334.81,1785.65 1327.29,1829.62C1323.71,1807.31 1304.41,1801.25 1305.94,1768.15C1305.05,1776.27 1297.52,1813.74 1289.54,1849.03C1279.33,1781.45 1238.64,1768.17 1279.02,1710.25C1236.99,1713.59 1225.76,1762.98 1212.42,1789.18C1199.96,1766.25 1215.19,1722.05 1221.15,1706.68C1227.1,1691.31 1234.28,1658.48 1220.65,1661.39C1207.03,1664.3 1200.51,1663.75 1178.02,1706.68C1175.67,1649.18 1162.2,1659.98 1145.22,1629.04C1128.24,1598.1 1145.67,1598.14 1161.63,1580.52ZM1179.08,1736.77C1180.24,1747.02 1175.38,1764.51 1169.24,1756.18C1163.1,1747.85 1172.47,1734.41 1172.52,1733.53C1172.56,1732.65 1177.92,1726.53 1179.08,1736.77Z" style="fill:url(#_Linear1);"/>
    </g>
    <defs>
        <linearGradient id="_Linear1" x1="0" y1="0" x2="1" y2="0" gradientUnits="userSpaceOnUse" gradientTransform="matrix(1139.97,1000.01,-1000.01,1139.97,741.063,849.067)"><stop offset="0" style="stop-color:rgb(243,78,135);stop-opacity:1"/><stop offset="1" style="stop-color:rgb(255,171,116);stop-opacity:1"/></linearGradient>
    </defs>
</svg>
