<svg xmlns="http://www.w3.org/2000/svg" xmlns:xlink="http://www.w3.org/1999/xlink" width="1139.958" height="1000.006" viewBox="0 0 434.75 381.376">
  <defs>
    <style>
      .cls-1 {
        fill: #fff;
        fill-rule: evenodd;
        filter: url(#filter);
      }
    </style>
    <filter id="filter" x="282.625" y="323.812" width="434.75" height="381.376" filterUnits="userSpaceOnUse">
      <feComposite result="composite" operator="in" in2="SourceGraphic"/>
      <feBlend result="blend" in2="SourceGraphic"/>
    </filter>
  </defs>
  <path id="Merged" class="cls-1" d="M606.182,464.448c30-6.846,79.956-16.123,111.2-60.163C698.352,486.1,615.533,484.434,577.7,483.915c33.393,8.09,68.853,16.854,110.562,1.015-41.83,44.716-89.777,29.062-125.791,16.445,17.379,14.678,38.4,26.742,76.678,26.742-75.162,32.746-132.056-20.693-132.056-64.508,60.48-7.389,153.977-52.722,204.615-139.782C714.472,400.372,646.737,449.005,606.182,464.448Zm-92.611-84.98c-6.376,0-18,2.842-28.735,5.925-12.722,3.654-24.192,7.646-24.192,7.646s10.368-20.08,12.114-20.35c0.17,0.038.22,0.039,0.1-.006a0.217,0.217,0,0,0-.1.006c-1.853-.411-19.435-5.61-20.257-12.22,24.152,9.6,79.924-18.02,82.784,8.142,15.5,8.336,18.835,13.122,6.785,28.5C541.529,386.876,527.617,379.468,513.571,379.468ZM360.851,528.117c38.282,0,59.3-12.064,76.678-26.742-36.014,12.617-83.961,28.271-125.792-16.445,41.71,15.839,77.17,7.075,110.563-1.015-37.833.519-120.652,2.189-139.678-79.63,31.24,44.04,81.2,53.317,111.2,60.163-40.555-15.443-108.29-64.076-105.526-140.621,50.638,87.06,144.135,132.393,204.615,139.782C492.907,507.424,436.013,560.863,360.851,528.117Zm99.793-117.435c-0.209-10.966,59.748-22.126,61.07-16.286-52.867,10.718-4.072,52.927-4.072,52.927S461.645,463.194,460.644,410.682Zm-17.63,192.087c9.9-10.927,6.311-40.872-5.427-49.6,16.1,0,62.413-26.811,62.413-62.413,0,35.176,41.988,62.413,58.341,62.413,7.374,0-20.181,24.6-4.057,40.725,5.139,4.117,1.368,25.621-.772,42.684-7.159-19.219-11.8-10.206-12.934-4.194s-9.677,21.225-15.009,28.377-3.23,10.461-8.756,24.675c-1.024-13.911-4.845-27.044-7.5-24.675S509.06,681,506.193,697.77c-1.366-8.511-8.727-10.821-8.143-23.442-0.338,3.094-3.211,17.383-6.254,30.845-3.895-25.776-19.41-30.84-4.01-52.927-16.031,1.272-20.315,20.109-25.4,30.1-4.752-8.745,1.056-25.6,3.327-31.462s5.008-18.383-.188-17.273-7.683.9-16.261,17.273c-0.895-21.93-6.031-17.81-12.508-29.61S436.929,609.487,443.014,602.769Zm6.655,59.591c0.442,3.907-1.412,10.577-3.753,7.4s1.233-8.3,1.251-8.636S449.227,658.454,449.669,662.36Z" transform="translate(-282.625 -323.812)"/>
</svg>
